<svg width="32" height="32" viewBox="0 0 32 32" fill="none" xmlns="http://www.w3.org/2000/svg">
<g clip-path="url(#clip0_4217_16816)">
<g clip-path="url(#clip1_4217_16816)">
<path d="M13.1766 17.6139V3.6504C13.1766 3.08842 12.6831 2.62648 12.1272 2.70534C5.11719 3.6963 -0.241048 9.82273 0.00836386 17.1649C0.264834 24.7054 6.75483 30.8889 14.296 30.7942C17.2607 30.7571 20.0001 29.8015 22.2525 28.2032C22.7172 27.8737 22.7478 27.1893 22.3448 26.7862L13.1766 17.6139Z" fill="#E83A78"/>
<path d="M31.0461 17.6145H17.0879L26.3838 26.9139C26.7391 27.2693 27.3238 27.2982 27.6891 26.9539C29.9655 24.8084 31.5314 21.9161 31.9908 18.6649C32.0697 18.1082 31.6079 17.6145 31.0461 17.6145Z" fill="#E83A78"/>
<path d="M30.1153 13.8009C29.6306 6.77118 24.0153 1.15377 16.9882 0.668876C16.4518 0.631803 16 1.08433 16 1.62218V14.7895H29.1629C29.7006 14.7895 30.1524 14.3376 30.1153 13.8009Z" fill="#E83A78"/>
</g>
</g>
<defs>
<clipPath id="clip0_4217_16816">
<rect width="32" height="32" fill="white"/>
</clipPath>
<clipPath id="clip1_4217_16816">
<rect width="32" height="32" fill="white"/>
</clipPath>
</defs>
</svg>
