<svg width="32" height="32" viewBox="0 0 32 32" fill="none" xmlns="http://www.w3.org/2000/svg">
<g clip-path="url(#clip0_4217_16814)">
<path d="M30 5V8C30 10.7625 23.7312 13 16 13C8.26875 13 2 10.7625 2 8V5C2 2.2375 8.26875 0 16 0C23.7312 0 30 2.2375 30 5ZM26.575 13.4187C27.875 12.9562 29.0688 12.3625 30 11.6313V18C30 20.7625 23.7312 23 16 23C8.26875 23 2 20.7625 2 18V11.6313C2.93125 12.3688 4.125 12.9562 5.425 13.4187C8.23125 14.4187 11.9688 15 16 15C20.0312 15 23.7688 14.4187 26.575 13.4187ZM2 21.6313C2.93125 22.3688 4.125 22.9563 5.425 23.4188C8.23125 24.4188 11.9688 25 16 25C20.0312 25 23.7688 24.4188 26.575 23.4188C27.875 22.9563 29.0688 22.3625 30 21.6313V27C30 29.7625 23.7312 32 16 32C8.26875 32 2 29.7625 2 27V21.6313Z" fill="#20B9EB"/>
</g>
<defs>
<clipPath id="clip0_4217_16814">
<rect width="28" height="32" fill="white" transform="translate(2)"/>
</clipPath>
</defs>
</svg>
