<svg width="116" height="37" viewBox="0 0 116 37" fill="none" xmlns="http://www.w3.org/2000/svg">
<path d="M0.566406 14.246C0.566406 13.1297 0.633517 11.9545 0.76774 10.7207C0.901962 9.48679 1.18383 8.34782 1.61781 7.30829C2.0518 6.26876 2.66027 5.40097 3.45218 4.70946C4.24409 4.01794 5.27761 3.66992 6.56166 3.66992C7.42516 3.66992 8.12759 3.86427 8.66448 4.25748C9.20137 4.6507 9.61746 5.11623 9.91722 5.65859C10.217 6.20096 10.4094 6.76592 10.4988 7.35349C10.5883 7.94105 10.6331 8.42918 10.6331 8.82239C10.6331 9.93876 10.6196 10.8879 10.5883 11.6698C10.557 12.4517 10.5302 13.1839 10.4988 13.8619C10.3736 16.6776 10.3244 19.4844 10.4854 22.3002C10.5123 22.7973 10.5749 23.3487 10.9463 23.6742C11.2415 23.9363 11.6621 23.9815 12.0514 24.0357C13.8455 24.2753 16.1675 24.7679 17.3889 26.2504C18.3822 27.4572 18.2166 29.7351 17.9034 31.1724C17.7692 31.7916 17.5455 32.3339 17.2323 32.7995C16.9191 33.265 16.4941 33.6266 15.9572 33.8842C15.4203 34.1418 14.7358 34.2684 13.8991 34.2684C12.8835 34.2684 9.22374 34.2006 8.28418 34.065C7.34463 33.9294 6.48113 33.6944 5.68922 33.3644C4.89731 33.0345 4.21278 32.5961 3.63115 32.0537C3.04952 31.5113 2.59316 30.8334 2.26655 30.0198C1.96679 29.2967 1.71624 28.3114 1.50596 27.0594C1.29568 25.8075 1.12567 24.447 0.991443 22.9691C0.857221 21.4911 0.754317 19.9951 0.678258 18.472C0.602199 16.9488 0.566406 15.5432 0.566406 14.246Z" fill="#21BCBE"/>
<path d="M29.6955 4.3914C30.4426 4.3914 31.0824 4.49535 31.6193 4.70778C32.1562 4.9202 32.6707 5.14619 33.1629 5.38573C33.655 5.62528 34.1382 5.85126 34.6169 6.06369C35.0957 6.27612 35.6326 6.38007 36.2276 6.38007C36.9435 6.38007 37.4803 6.23544 37.8383 5.9507C38.1962 5.66596 38.5318 5.34958 38.8449 5.00156C39.1581 4.65354 39.5295 4.33716 39.9635 4.05242C40.3974 3.76768 41.0596 3.62305 41.9544 3.62305C42.5495 3.62305 43.1311 3.7496 43.6993 4.00722C44.2675 4.26485 44.7597 4.61738 45.1758 5.06935C45.5918 5.52133 45.9274 6.07725 46.1824 6.74165C46.4374 7.40604 46.5627 8.14276 46.5627 8.9563C46.5627 9.34952 46.5403 9.919 46.4956 10.6738C46.4509 11.4286 46.3838 12.1653 46.2943 12.8885C46.084 14.4839 45.8155 15.9528 45.4889 17.2952C45.1623 18.6375 44.9968 20.0612 44.9968 21.5663C44.9968 22.2307 45.0415 22.9584 45.131 23.7584C45.2205 24.5583 45.3189 25.3403 45.4218 26.1086C45.5247 26.877 45.6232 27.6137 45.7126 28.3233C45.8021 29.0329 45.8469 29.643 45.8469 30.1537C45.8469 31.2701 45.7574 32.1967 45.5784 32.9334C45.3995 33.6701 45.131 34.2531 44.7731 34.6735C44.4152 35.0938 43.9678 35.3966 43.4309 35.5774C42.894 35.7582 42.281 35.8486 41.5965 35.8486C41.0283 35.8486 40.469 35.7898 39.9187 35.6678C39.3684 35.5458 38.8673 35.3514 38.4199 35.0802C37.9725 34.8091 37.6056 34.4701 37.3238 34.0633C37.0419 33.6565 36.8987 33.1503 36.8987 32.5492C36.8987 31.8848 36.7555 31.2837 36.4737 30.7413C36.1918 30.1989 35.8563 29.9278 35.467 29.9278C34.9614 29.9278 34.4693 30.1311 33.9906 30.5379C33.5118 30.9447 32.9839 31.3967 32.4023 31.8938C31.8206 32.391 31.163 32.843 30.4337 33.2497C29.7044 33.6565 28.8141 33.8599 27.7716 33.8599C26.4294 33.8599 25.1766 33.5435 24.0134 32.9108C22.8501 32.278 21.8345 31.3741 20.971 30.1989C20.1075 29.0238 19.4185 27.6227 18.9129 25.9956C18.4074 24.3685 18.1523 22.5606 18.1523 20.572C18.1523 18.0997 18.4432 15.8715 19.0248 13.8828C19.6064 11.8941 20.4118 10.1992 21.4408 8.79812C22.4698 7.39701 23.6868 6.31227 25.0872 5.54392C26.4875 4.77557 28.0266 4.3914 29.6955 4.3914ZM27.1452 18.4929C27.1452 19.2748 27.2258 20.0206 27.3913 20.7302C27.5568 21.4397 27.785 22.0544 28.0848 22.5832C28.3846 23.112 28.747 23.5233 29.1809 23.8262C29.6149 24.129 30.0981 24.2781 30.635 24.2781C31.2301 24.2781 31.8296 24.0747 32.4246 23.668C33.0197 23.2612 33.5655 22.7414 34.0577 22.1087C34.5498 21.4759 34.9525 20.7618 35.2657 19.9618C35.5789 19.1618 35.7355 18.3573 35.7355 17.5438C35.7355 16.8522 35.6326 16.1878 35.4223 15.5551C35.212 14.9223 34.9212 14.3709 34.5498 13.9054C34.1785 13.4399 33.7311 13.0602 33.2076 12.7755C32.6841 12.4907 32.1115 12.3461 31.4851 12.3461C30.8587 12.3461 30.2323 12.5178 29.6955 12.8659C29.1586 13.2139 28.7022 13.6749 28.3309 14.2444C27.9595 14.8184 27.6687 15.4737 27.4584 16.2104C27.2481 16.9472 27.1452 17.711 27.1452 18.4929Z" fill="#21BCBE"/>
<path d="M47.4609 6.33827C47.4609 5.82754 47.5862 5.25353 47.8412 4.62078C48.0963 3.98802 48.4676 3.38689 48.9598 2.81289C49.4519 2.23889 50.0693 1.76432 50.8165 1.38918C51.5637 1.01405 52.4272 0.824219 53.4115 0.824219C54.0691 0.824219 54.6329 1.04116 55.1116 1.47958C55.5903 1.91799 56.0064 2.46035 56.3643 3.10667C56.7223 3.75299 57.0355 4.45355 57.3039 5.20834C57.5723 5.96313 57.8274 6.66368 58.0645 7.31C58.3016 7.95632 58.5566 8.49869 58.8251 8.9371C59.0935 9.37551 59.3933 9.59246 59.7199 9.59246C60.0778 9.59246 60.4939 9.25348 60.9726 8.57552C61.4514 7.89757 61.9211 7.11566 62.382 6.22527C62.8428 5.33489 63.2902 4.47162 63.7242 3.62644C64.1582 2.78125 64.5206 2.19369 64.8203 1.86375C65.4154 1.17224 66.2207 0.824219 67.2363 0.824219C67.7419 0.824219 68.2564 0.914613 68.7799 1.0954C69.3034 1.27619 69.7866 1.52477 70.234 1.84115C70.6814 2.15753 71.0483 2.55075 71.3301 3.01628C71.612 3.48181 71.7552 3.98802 71.7552 4.53038C71.7552 5.67387 71.5762 6.82187 71.2183 7.96536C70.8603 9.10885 70.404 10.2614 69.8537 11.4229C69.3034 12.5845 68.7038 13.7506 68.0641 14.9257C67.4243 16.1008 66.8247 17.285 66.2744 18.4737C65.7241 19.6624 65.2678 20.8601 64.9098 22.0669C64.5519 23.2736 64.3729 24.5075 64.3729 25.773C64.3729 26.5278 64.4043 27.2736 64.4624 28.0103C64.5206 28.747 64.5519 29.4973 64.5519 30.2475C64.5519 30.9978 64.44 31.6396 64.2163 32.2588C63.9926 32.878 63.666 33.4249 63.232 33.9085C62.7981 34.3921 62.2612 34.7672 61.6214 35.0384C60.9816 35.3096 60.2568 35.4452 59.4515 35.4452C58.2569 35.4452 57.2681 35.2644 56.4762 34.9028C55.6843 34.5413 55.0579 34.0305 54.5971 33.3661C54.1363 32.7017 53.8141 31.9289 53.6352 31.0385C53.4562 30.1481 53.3667 29.1944 53.3667 28.1685C53.3667 27.5673 53.3801 26.9165 53.4115 26.225C53.4428 25.5335 53.4562 24.8239 53.4562 24.1007C53.4562 23.3776 53.4204 22.677 53.3443 21.9991C53.2683 21.3211 53.143 20.7109 52.964 20.1686C52.7269 19.4771 52.4272 18.7449 52.0692 17.9765C51.7113 17.2082 51.34 16.4398 50.9507 15.6715C50.5615 14.9031 50.1767 14.1348 49.7875 13.3664C49.3982 12.5981 49.0582 11.884 48.7584 11.2196C48.4318 10.4648 48.132 9.67381 47.8636 8.8467C47.5952 8.0196 47.4609 7.18345 47.4609 6.33827Z" fill="#21BCBE"/>
<path d="M72.1094 14.246C72.1094 13.1297 72.1765 11.9545 72.3107 10.7207C72.4449 9.48679 72.7268 8.34782 73.1608 7.30829C73.5948 6.26876 74.2032 5.40097 74.9952 4.70946C75.7871 4.01794 76.8206 3.66992 78.1046 3.66992C78.9681 3.66992 79.6706 3.86427 80.2075 4.25748C80.7443 4.6507 81.1604 5.11623 81.4602 5.65859C81.76 6.20096 81.9523 6.76592 82.0418 7.35349C82.1313 7.94105 82.176 8.42918 82.176 8.82239C82.176 9.93876 82.1626 10.8879 82.1313 11.6698C82.1 12.4517 82.0731 13.1839 82.0418 13.8619C82.0105 14.5398 81.9837 15.2268 81.9523 15.9183C81.921 16.6144 81.9076 17.4234 81.9076 18.359C81.9076 19.4121 81.93 20.3838 81.9747 21.2742C82.0194 22.1646 82.1179 22.8787 82.2655 23.4211C82.4132 23.9951 82.7264 24.4832 83.2051 24.89C83.6838 25.2967 84.176 25.5001 84.6815 25.5001C85.545 25.5001 86.1445 25.8481 86.4712 26.5397C86.7978 27.2357 86.9633 28.108 86.9633 29.1611C86.9633 29.8842 86.8962 30.5532 86.762 31.1724C86.6277 31.7916 86.404 32.3339 86.0909 32.7995C85.7777 33.265 85.3526 33.6266 84.8157 33.8842C84.2789 34.1418 83.5943 34.2684 82.7577 34.2684C81.7421 34.2684 80.7667 34.2006 79.8272 34.065C78.8876 33.9294 78.0241 33.6944 77.2322 33.3644C76.4403 33.0345 75.7557 32.5961 75.1741 32.0537C74.5925 31.5113 74.1361 30.8334 73.8095 30.0198C73.5098 29.2967 73.2592 28.3114 73.0489 27.0594C72.8387 25.8075 72.6686 24.447 72.5344 22.9691C72.4002 21.4911 72.2973 19.9951 72.2212 18.472C72.1452 16.9488 72.1094 15.5432 72.1094 14.246Z" fill="#21BCBE"/>
<path d="M87.9883 27.5354C87.9883 26.871 88.1225 26.1478 88.391 25.3659C88.6594 24.584 88.995 23.784 89.3976 22.9705C89.8003 22.1569 90.2164 21.366 90.6504 20.5976C91.0843 19.8293 91.4467 19.1287 91.7465 18.496C92.1626 17.6824 92.4937 16.8372 92.7308 15.9649C92.9679 15.0926 93.2095 14.2158 93.4467 13.3435C93.6838 12.4712 93.9478 11.6034 94.2296 10.7447C94.5115 9.88593 94.8784 9.06334 95.3258 8.28143C95.715 7.61703 96.2027 7.01591 96.8022 6.47354C97.3973 5.93118 98.0639 5.45661 98.7932 5.04984C99.5224 4.64306 100.301 4.32668 101.12 4.1007C101.938 3.87471 102.753 3.76172 103.558 3.76172C104.869 3.76172 106.05 4.0555 107.093 4.64306C108.135 5.23062 109.03 6.07581 109.777 7.1741C110.524 8.27239 111.106 9.62378 111.522 11.2192C111.938 12.8147 112.18 14.609 112.238 16.5977C112.296 18.8259 112.475 20.7965 112.775 22.4959C113.074 24.1998 113.611 25.8315 114.385 27.3998C114.622 27.9105 114.842 28.5523 115.034 29.3207C115.226 30.089 115.325 30.8212 115.325 31.5127C115.325 32.0551 115.177 32.5613 114.877 33.0268C114.578 33.4924 114.175 33.8991 113.669 34.2472C113.164 34.5952 112.564 34.8664 111.88 35.0607C111.191 35.2551 110.448 35.3545 109.643 35.3545C107.822 35.3545 106.363 34.8483 105.258 33.8404C104.153 32.8325 103.603 31.4811 103.603 29.7952C103.603 27.4766 102.587 26.3151 100.56 26.3151C99.5448 26.3151 98.7708 26.5772 98.2339 27.106C97.697 27.6348 97.4286 28.2902 97.4286 29.0721C97.4286 29.6145 97.348 30.1478 97.1825 30.6766C97.017 31.2054 96.7485 31.6709 96.3772 32.0777C96.0058 32.4845 95.5271 32.8144 94.9455 33.072C94.3638 33.3297 93.6704 33.4562 92.865 33.4562C91.0172 33.4562 89.7421 32.9681 89.0397 31.9873C88.3373 31.0065 87.9883 29.5241 87.9883 27.5354ZM99.7551 18.8576C99.7551 19.9106 99.943 20.6654 100.314 21.1174C100.686 21.5694 101.308 21.7954 102.171 21.7954C103.097 21.7954 103.75 21.5468 104.14 21.0496C104.529 20.5524 104.721 19.7299 104.721 18.5864C104.721 17.2305 104.498 16.1231 104.05 15.2644C103.603 14.4056 103.035 13.9763 102.35 13.9763C101.603 13.9763 100.985 14.4418 100.493 15.3774C100.001 16.313 99.7551 17.47 99.7551 18.8576Z" fill="#21BCBE"/>
</svg>
