<svg width="149" height="150" viewBox="0 0 149 150" fill="none" xmlns="http://www.w3.org/2000/svg">
<path d="M73.2974 0.00122691C67.1798 0.0296523 61.3377 0.551393 56.1972 1.461C41.0539 4.13631 38.3045 9.73597 38.3045 20.0627V33.7011H74.0898V38.2473H38.3045H24.8746C14.4744 38.2473 5.36766 44.4984 2.5192 56.3902C-0.766469 70.0209 -0.912207 78.5267 2.5192 92.7594C5.06295 103.354 11.1378 110.902 21.538 110.902H33.8418V94.5528C33.8418 82.7413 44.0614 72.3226 56.1972 72.3226H91.9408C101.891 72.3226 109.833 64.1303 109.833 54.138V20.0627C109.833 10.3647 101.652 3.07956 91.9408 1.461C85.7934 0.437691 79.4149 -0.0271989 73.2974 0.00122691ZM53.9449 10.9704C57.6413 10.9704 60.6599 14.0383 60.6599 17.8105C60.6599 21.5693 57.6413 24.6088 53.9449 24.6088C50.2353 24.6088 47.23 21.5693 47.23 17.8105C47.23 14.0383 50.2353 10.9704 53.9449 10.9704Z" fill="url(#paint0_linear_19_8)"/>
<path d="M114.296 38.2473V54.138C114.296 66.4578 103.851 76.827 91.9409 76.827H56.1973C46.4065 76.827 38.3046 85.2066 38.3046 95.0116V129.087C38.3046 138.785 46.7377 144.489 56.1973 147.272C67.5249 150.602 78.3875 151.204 91.9409 147.272C100.95 144.663 109.834 139.414 109.834 129.087V115.448H74.0899V110.902H109.834H127.726C138.126 110.902 142.002 103.648 145.619 92.7594C149.355 81.5499 149.196 70.77 145.619 56.3902C143.049 46.0367 138.14 38.2473 127.726 38.2473H114.296ZM94.1931 124.541C97.9027 124.541 100.908 127.58 100.908 131.339C100.908 135.111 97.9027 138.179 94.1931 138.179C90.4967 138.179 87.4781 135.111 87.4781 131.339C87.4781 127.58 90.4967 124.541 94.1931 124.541Z" fill="url(#paint1_linear_19_8)"/>
<defs>
<linearGradient id="paint0_linear_19_8" x1="54.9167" y1="91.2455" x2="25.5919" y2="49.9218" gradientUnits="userSpaceOnUse">
<stop offset="1" stop-color="#FFD43A"/>
</linearGradient>
<linearGradient id="paint1_linear_19_8" x1="93.3331" y1="130.193" x2="63.7292" y2="88.7085" gradientUnits="userSpaceOnUse">
<stop offset="1" stop-color="#FFD43A"/>
</linearGradient>
</defs>
</svg>
