<svg xmlns="http://www.w3.org/2000/svg" xmlns:xlink="http://www.w3.org/1999/xlink" viewBox="0,0,256,256" width="64px" height="64px" fill-rule="nonzero"><g fill="#9ca3af" fill-rule="nonzero" stroke="none" stroke-width="1" stroke-linecap="butt" stroke-linejoin="miter" stroke-miterlimit="10" stroke-dasharray="" stroke-dashoffset="0" font-family="none" font-weight="none" font-size="none" text-anchor="none" style="mix-blend-mode: normal"><g transform="scale(3.55556,3.55556)"><path d="M42.5,14c14.375,0 15.5,1.125 15.5,15.5v13c0,14.375 -1.125,15.5 -15.5,15.5h-13c-14.375,0 -15.5,-1.125 -15.5,-15.5v-13c0,-14.375 1.125,-15.5 15.5,-15.5zM45.616,34.045v-3.79c0,0 -2.003,0.01 -3.695,-1.54c-1.422,-1.302 -1.54,-3.743 -1.54,-3.743h-3.79c0,0 0,12.934 0,14.994c0,2.06 -1.793,3.127 -3.079,3.127c-0.969,0 -3.174,-0.76 -3.174,-3.151c0,-2.51 2.535,-3.15 3.198,-3.15c0.663,0 0.924,0.142 0.924,0.142v-4c0,0 -0.616,-0.059 -1.066,-0.074c-3.825,-0.13 -6.988,3.303 -6.988,7.083c0,3.193 2.497,7.059 7.059,7.059c4.859,0 7.083,-4.052 7.083,-7.035c0,-2.179 0,-7.438 0,-7.438c0,0 1.398,0.782 2.535,1.137c1.136,0.355 2.533,0.379 2.533,0.379z"></path></g></g></svg>